<?xml version="1.0"?>
<svg xmlns="http://www.w3.org/2000/svg" xmlns:xlink="http://www.w3.org/1999/xlink" xmlns:svgjs="http://svgjs.com/svgjs" version="1.1" width="512" height="512" x="0" y="0" viewBox="0 0 512 512" style="enable-background:new 0 0 512 512" xml:space="preserve" class=""><g><link type="text/css" rel="stylesheet" id="dark-mode-general-link"/><link type="text/css" rel="stylesheet" id="dark-mode-custom-link"/><style type="text/css" id="dark-mode-custom-style"/><path xmlns="http://www.w3.org/2000/svg" d="m512 245c0 45.585-22.212 88.58-59.417 115.013-9.005 6.397-21.491 4.283-27.887-4.722-6.397-9.005-4.284-21.49 4.721-27.888 26.664-18.943 42.583-49.748 42.583-82.403 0-55.691-45.309-101-101-101-1.28 0-2.671.032-4.255.097-5.313.235-10.507-1.691-14.413-5.31-3.906-3.618-6.208-8.645-6.396-13.966-1.684-47.563-40.31-84.821-87.936-84.821-43.431 0-79.963 31.062-86.865 73.858-1.713 10.625-11.534 17.982-22.208 16.663-2.789-.346-5.624-.521-8.427-.521-37.22 0-67.5 30.28-67.5 67.5 0 8.45 1.54 16.687 4.575 24.483 3.698 9.495-.335 20.252-9.363 24.978-17.401 9.106-28.212 26.939-28.212 46.539 0 28.948 23.776 52.5 53 52.5 11.046 0 20 8.954 20 20s-8.954 20-20 20c-51.28 0-93-41.495-93-92.5 0-28.844 13.276-55.51 35.5-72.856-1.662-7.559-2.5-15.297-2.5-23.144 0-57.677 45.653-104.89 102.724-107.395 7.084-22.836 20.529-43.434 38.889-59.214 23.176-19.92 52.79-30.891 83.387-30.891 33.388 0 64.988 12.782 88.979 35.99 19.342 18.711 32.083 42.582 36.878 68.591 71.747 6.514 128.143 67.004 128.143 140.419zm-133-6.034v171.971c0 33.084-26.916 60-60 60s-60-26.916-60-60 26.916-60 60-60c7.011 0 13.74 1.22 20 3.44v-107.51c-33.338 23.595-68.843 32.824-108.377 28.198-3.444-.395-5.783 1.158-6.869 2.125-1.256 1.117-2.754 3.091-2.754 6.145v168.665c0 33.084-26.916 60-60 60s-60-26.916-60-60 26.916-60 60-60c7.011 0 13.74 1.22 20 3.44v-112.106c0-13.756 5.892-26.887 16.164-36.027 10.371-9.229 24.229-13.282 38.107-11.971 53.421 5.049 86.181-25.209 86.181-25.209 10.984-8.206 25.421-9.488 37.677-3.345 12.257 6.142 19.871 18.474 19.871 32.184zm-198 213.034c0-11.028-8.972-20-20-20s-20 8.972-20 20 8.972 20 20 20 20-8.972 20-20zm158-41.062c0-11.028-8.972-20-20-20s-20 8.972-20 20 8.972 20 20 20 20-8.972 20-20z" fill="#ff8871" data-original="#000000" style=""/></g></svg>
