<?xml version="1.0"?>
<svg xmlns="http://www.w3.org/2000/svg" xmlns:xlink="http://www.w3.org/1999/xlink" xmlns:svgjs="http://svgjs.com/svgjs" version="1.1" width="512" height="512" x="0" y="0" viewBox="0 0 512 512" style="enable-background:new 0 0 512 512" xml:space="preserve" class=""><g><link type="text/css" rel="stylesheet" id="dark-mode-general-link"/><link type="text/css" rel="stylesheet" id="dark-mode-custom-link"/><style type="text/css" id="dark-mode-custom-style"/><path xmlns="http://www.w3.org/2000/svg" d="m437.02 74.98c-48.353-48.351-112.64-74.98-181.02-74.98s-132.667 26.629-181.02 74.98c-48.351 48.353-74.98 112.64-74.98 181.02s26.629 132.667 74.98 181.02c48.353 48.351 112.64 74.98 181.02 74.98s132.667-26.629 181.02-74.98c48.351-48.353 74.98-112.64 74.98-181.02s-26.629-132.667-74.98-181.02zm-181.02 397.02c-119.103 0-216-96.897-216-216s96.897-216 216-216 216 96.897 216 216-96.897 216-216 216zm127.562-256.332-65.867-39.143c-14.479-8.604-31.864-8.767-46.507-.436-13.183 7.501-21.518 20.454-22.945 35.229l-58.548-34.793c-14.479-8.604-31.865-8.767-46.507-.436-14.52 8.262-23.188 23.129-23.188 39.768v78.285c0 16.64 8.668 31.506 23.188 39.768 7.192 4.092 15.044 6.135 22.891 6.135 8.127 0 16.25-2.193 23.616-6.571l58.548-34.793c1.427 14.775 9.762 27.728 22.945 35.229 7.192 4.092 15.044 6.135 22.891 6.135 8.127 0 16.25-2.193 23.616-6.571l65.867-39.143c14.05-8.349 22.438-23.052 22.438-39.331s-8.388-30.982-22.438-39.332zm-148.435 44.277-65.867 39.143c-2.72 1.615-5.109.729-6.291.057-1.355-.771-2.97-2.264-2.97-5.001v-78.285c0-2.737 1.615-4.23 2.97-5.001 1.182-.673 3.571-1.56 6.291.057l65.867 39.143c2.374 1.411 2.873 3.468 2.873 4.945s-.499 3.531-2.873 4.942zm128 0-65.867 39.143c-2.72 1.615-5.109.729-6.291.057-1.355-.771-2.97-2.264-2.97-5.001v-78.285c0-2.737 1.615-4.23 2.97-5.001 1.181-.673 3.571-1.56 6.291.057l65.867 39.143c2.374 1.411 2.873 3.468 2.873 4.945s-.499 3.531-2.873 4.942z" fill="#49f2d2" data-original="#000000" style=""/></g></svg>
