<?xml version="1.0"?>
<svg xmlns="http://www.w3.org/2000/svg" xmlns:xlink="http://www.w3.org/1999/xlink" xmlns:svgjs="http://svgjs.com/svgjs" version="1.1" width="512" height="512" x="0" y="0" viewBox="0 0 512.063 512.063" style="enable-background:new 0 0 512 512" xml:space="preserve" class=""><g><link type="text/css" rel="stylesheet" id="dark-mode-general-link"/><link type="text/css" rel="stylesheet" id="dark-mode-custom-link"/><style type="text/css" id="dark-mode-custom-style"/><path xmlns="http://www.w3.org/2000/svg" d="m512.03 120v123c0 11.046-8.954 20-20 20s-20-8.954-20-20v-123c0-44.112-35.888-80-80-80h-272c-44.112 0-80 35.888-80 80v192c0 44.112 35.888 80 80 80h161c11.046 0 20 8.954 20 20s-8.954 20-20 20h-161c-66.168 0-120-53.832-120-120v-192c0-66.168 53.832-120 120-120h272c66.168 0 120 53.832 120 120zm-230.984 352h-175.016c-28.061 0-54.423-15-68.8-39.146-5.65-9.491-17.928-12.604-27.416-6.953-9.491 5.65-12.604 17.926-6.953 27.416 10.447 17.548 25.302 32.244 42.957 42.502 18.219 10.586 39.041 16.181 60.212 16.181h175.016c11.046 0 20-8.954 20-20s-8.954-20-20-20zm-45.016-372v232c0 11.046 8.954 20 20 20s20-8.954 20-20v-232c0-11.046-8.954-20-20-20-11.045 0-20 8.954-20 20zm-60 11h-76c-11.046 0-20 8.954-20 20s8.954 20 20 20h76c11.046 0 20-8.954 20-20s-8.954-20-20-20zm20 100c0-11.046-8.954-20-20-20h-76c-11.046 0-20 8.954-20 20s8.954 20 20 20h76c11.046 0 20-8.954 20-20zm-96 60c-11.046 0-20 8.954-20 20s8.954 20 20 20h36c11.046 0 20-8.954 20-20s-8.954-20-20-20zm236-120h76c11.046 0 20-8.954 20-20s-8.954-20-20-20h-76c-11.046 0-20 8.954-20 20s8.955 20 20 20zm0 80h76c11.046 0 20-8.954 20-20s-8.954-20-20-20h-76c-11.046 0-20 8.954-20 20s8.955 20 20 20zm36 80c11.046 0 20-8.954 20-20s-8.954-20-20-20h-36c-11.046 0-20 8.954-20 20s8.954 20 20 20zm136.212.351c6.469 8.953 4.454 21.455-4.5 27.924 0 0-11.712 10.721-31.712 10.721-7.166 0-14.331-1.707-21-4.88v109.947c0 1.435-.158 2.831-.445 4.18-3.561 29.709-28.902 52.82-59.555 52.82-33.084 0-60-26.916-60-60s26.916-60 60-60c7.011 0 13.74 1.22 20 3.44v-55.557c0-13.341 7.229-25.681 18.865-32.204 11.635-6.523 25.935-6.254 37.315.707 1.792 1.096 3.816 1.524 5.819 1.524 4 0 7.288-3.123 7.288-3.123 8.954-6.468 21.456-4.454 27.925 4.501zm-97.212 140.712c0-11.028-8.972-20-20-20s-20 8.972-20 20 8.972 20 20 20 20-8.972 20-20z" fill="#49f2d2" data-original="#000000" style="" class=""/></g></svg>
